<svg xmlns="http://www.w3.org/2000/svg" xmlns:xlink="http://www.w3.org/1999/xlink" id="Layer_1" x="0px" y="0px" width="322.753px" height="322.79px" viewBox="0 0 322.753 322.79" xml:space="preserve"><path fill-rule="evenodd" clip-rule="evenodd" fill="#00A65D" d="M69.671,322.661l-0.136-29.272c0-3.086-2.498-5.583-5.58-5.583 H47.824v11.166h10.607v12.042H47.387l-7.779,11.647l-0.07-23.679h4.557l0.003-11.191h-20.6l85.199-126.451L0.011,0.026L85.008,0.07 c13.204,0,24.937,6.801,31.771,17.003l44.583,66.1l19.614-28.99l25.613-37.765C213.463,6.495,224.92,0,237.906,0l84.703,0.004 l0.037,17.462c0,9.732-7.827,17.625-17.471,17.625l-58.574,0.003l-3.914,5.995h80.018l0.015,17.422 c0,9.735-7.771,17.658-17.415,17.658h-86.453l-4.075,6.054l107.977-0.025v17.327c0,9.728-7.988,17.716-17.658,17.716l-113.901,0.011 l-4.005,6.028l52.204,0.007l-25.312,38.115l108.583,161.266l-84.592-0.019c-13.142,0-25.172-6.58-32.017-16.705l-44.683-66.423 l-55.64,82.47L94.57,305.26l11.674-17.47l-10.313,0.007c-1.865,0-3.517,0.916-4.531,2.325l-3.49,5.358l-3.564-5.406 c-1.015-1.395-2.655-2.299-4.509-2.299l-10.276-0.011l11.703,17.499L69.671,322.661z"></path><path fill-rule="evenodd" clip-rule="evenodd" fill="none" d="M39.607,322.661"></path><path fill-rule="evenodd" clip-rule="evenodd" fill="none" d="M69.671,322.661"></path><path fill-rule="evenodd" clip-rule="evenodd" fill="#00A65D" d="M94.945,322.661H81.051c-0.376,0.081-0.766,0.122-1.162,0.122 H69.594l-11.166-0.004l-7.419-0.118c-0.382,0.085-0.779,0.129-1.184,0.129l-10.288-0.022c-11.155,0-11.155,0.016-11.155,0.016 L0,322.665l15.955-23.683h12.427v23.683c0,0.118,0,0.103,11.155,0.103l10.288,0.022c0.404,0,0.802-0.044,1.184-0.129 c1.413-0.302,2.626-1.14,3.417-2.291l4.006-6.047l-0.004,8.338l11.166,0.122h10.295c0.396,0,0.786-0.041,1.162-0.122 c1.423-0.298,2.647-1.14,3.442-2.295l3.417-5.26l3.493,5.285C92.228,321.557,93.489,322.392,94.945,322.661z"></path></svg>