<svg xmlns:dc="http://purl.org/dc/elements/1.1/" xmlns:cc="http://creativecommons.org/ns#" xmlns:rdf="http://www.w3.org/1999/02/22-rdf-syntax-ns#" xmlns:svg="http://www.w3.org/2000/svg" xmlns="http://www.w3.org/2000/svg" xmlns:sodipodi="http://sodipodi.sourceforge.net/DTD/sodipodi-0.dtd" xmlns:inkscape="http://www.inkscape.org/namespaces/inkscape" id="Layer_1" x="0px" y="0px" width="241.55737" height="239.04559" viewBox="0 0 241.55738 239.04559" xml:space="preserve" inkscape:version="0.92.3 (2405546, 2018-03-11)" sodipodi:docname="Misrad_habitahon.svg"><metadata></metadata><defs id="defs81">															<clipPath id="clipPath986" clipPathUnits="userSpaceOnUse"><path inkscape:connector-curvature="0" id="path984" d="M 0,841.89 H 595.276 V 0 H 0 Z"></path></clipPath></defs><path style="fill:#1c5d8e;fill-opacity:1;stroke-width:0.75030333" d="M 116.59579,5 95.19698,20.51317 v 107.90887 h 21.39881 z m 9.21147,0 v 123.42204 h 21.39882 V 20.51317 Z M 85.842231,27.297079 70.265689,38.588912 v 83.569998 c 0,12.67622 1.093884,22.47345 24.504203,22.47345 h 21.090208 4.19378 26.73336 c 23.41032,0 24.50697,-9.79723 24.50697,-22.47345 V 38.588912 L 155.7149,27.297079 v 93.128651 c 0,12.40809 -3.89221,15.60136 -17.01215,15.60136 h -18.64887 -4.19378 -13.00572 c -13.119935,0 -17.012149,-3.19327 -17.012149,-15.60136 z m -21.285839,15.433277 -13.72213,9.947167 v 77.362107 c 0,18.089 6.737043,28.76688 30.147362,28.76688 h 50.678216 28.91567 c 23.41032,0 30.15011,-10.67788 30.15011,-28.76688 V 52.677523 l -13.72213,-9.947167 v 85.576084 c 0,15.20783 -10.66505,21.24451 -27.3313,21.24451 H 131.65984 91.887691 c -16.666237,0 -27.331299,-6.03668 -27.331299,-21.24451 z M 46.422793,55.876602 35.447837,63.831579 v 77.808351 0.11851 c 0.0014,0.006 0.0042,0.0113 0.0056,0.0165 0.03456,8.113 3.271889,15.88405 9.007554,21.62201 5.39881,5.37923 12.60185,8.56344 20.213977,8.93592 l 43.676612,0.0662 v 0.0113 l 4.52169,-0.006 3.40298,0.006 v -0.008 l 60.60608,-0.0688 c 7.61213,-0.37248 14.81517,-3.55669 20.21398,-8.93592 5.73567,-5.73796 8.97302,-13.50901 9.00756,-21.62201 10e-4,-0.006 0.004,-0.0113 0.006,-0.0165 v -0.11907 -77.80835 l -10.97532,-7.954977 v 72.862317 c 0,20.82439 -6.43328,34.41281 -27.25689,34.41281 H 116.27642 73.679941 c -20.823608,0 -27.256894,-13.58842 -27.256894,-34.41281 z" id="polygon7-9" inkscape:connector-curvature="0" sodipodi:nodetypes="ccccccccccccssccssccssccsscccsscssccsscssccccccccccccccccccccsscscc"></path><path inkscape:connector-curvature="0" id="path827" style="font-style:normal;font-variant:normal;font-weight:bold;font-stretch:normal;font-size:medium;line-height:1000%;font-family:'Droid Sans';-inkscape-font-specification:'Droid Sans Bold';letter-spacing:0px;word-spacing:0px;fill:#000000;fill-opacity:1;stroke:none;stroke-width:3.80188394px;stroke-linecap:butt;stroke-linejoin:miter;stroke-opacity:1" d="m 14.939216,233.84264 -3.257569,-11.64002 h -0.09114 q 0.06109,0.93362 0.101718,1.80638 0.01905,0.37564 0.03174,0.77121 0.01905,0.39589 0.03174,0.78145 0.01905,0.38564 0.01905,0.74085 0.0127,0.35504 0.0127,0.63928 v 6.90085 H 8.9764137 v -14.83671 h 4.2825653 l 3.206852,11.34568 h 0.06066 l 3.409836,-11.34568 h 4.282536 v 14.83671 h -2.932848 v -7.02259 q 0,-0.26373 0,-0.59876 0.0127,-0.33494 0.01905,-0.71041 0.0127,-0.37555 0.01905,-0.76103 0.01904,-0.38564 0.03174,-0.75102 0.04063,-0.8525 0.07124,-1.77595 h -0.0814 l -3.511286,11.61976 z"></path><path sodipodi:nodetypes="ccccc" d="m 31.714295,233.84264 h -3.135833 v -14.83671 h 3.135833 z" style="font-style:normal;font-variant:normal;font-weight:bold;font-stretch:normal;font-size:medium;line-height:1000%;font-family:'Droid Sans';-inkscape-font-specification:'Droid Sans Bold';letter-spacing:0px;word-spacing:0px;fill:#000000;fill-opacity:1;stroke:none;stroke-width:3.80188394px;stroke-linecap:butt;stroke-linejoin:miter;stroke-opacity:1" id="path931" inkscape:connector-curvature="0"></path><path inkscape:connector-curvature="0" id="path829" style="font-style:normal;font-variant:normal;font-weight:bold;font-stretch:normal;font-size:medium;line-height:1000%;font-family:'Droid Sans';-inkscape-font-specification:'Droid Sans Bold';letter-spacing:0px;word-spacing:0px;fill:#000000;fill-opacity:1;stroke:none;stroke-width:3.80188394px;stroke-linecap:butt;stroke-linejoin:miter;stroke-opacity:1" d="m 56.070097,233.84264 h -3.135818 v -14.83671 h 3.135818 z" sodipodi:nodetypes="ccccc"></path><path inkscape:connector-curvature="0" id="path831" style="font-style:normal;font-variant:normal;font-weight:bold;font-stretch:normal;font-size:medium;line-height:1000%;font-family:'Droid Sans';-inkscape-font-specification:'Droid Sans Bold';letter-spacing:0px;word-spacing:0px;fill:#000000;fill-opacity:1;stroke:none;stroke-width:3.80188394px;stroke-linecap:butt;stroke-linejoin:miter;stroke-opacity:1" d="m 48.580723,233.84264 h -3.988302 l -5.835252,-11.22395 h -0.09114 q 0.06066,0.78137 0.101294,1.55266 0.04063,0.65963 0.06109,1.39031 0.03174,0.7205 0.03174,1.29901 v 6.98197 h -2.811097 v -14.83671 h 3.967973 l 5.82508,11.1123 h 0.06109 q -0.03174,-0.77128 -0.07124,-1.52222 -0.0127,-0.32469 -0.03174,-0.65964 -0.0127,-0.34519 -0.01905,-0.67989 -0.0127,-0.34529 -0.01905,-0.65973 0,-0.31459 0,-0.56823 v -7.02259 h 2.821241 z"></path><path inkscape:connector-curvature="0" id="path835" style="font-style:normal;font-variant:normal;font-weight:bold;font-stretch:normal;font-size:medium;line-height:1000%;font-family:'Droid Sans';-inkscape-font-specification:'Droid Sans Bold';letter-spacing:0px;word-spacing:0px;fill:#000000;fill-opacity:1;stroke:none;stroke-width:3.80188394px;stroke-linecap:butt;stroke-linejoin:miter;stroke-opacity:1" d="m 68.532167,229.7225 q 0,0.99449 -0.345206,1.7962 -0.33495,0.79156 -0.994536,1.35981 -0.649472,0.55823 -1.603391,0.86265 -0.943833,0.30444 -2.17177,0.30444 -1.075699,0 -2.080407,-0.22313 -0.994508,-0.22305 -1.846977,-0.6698 v -2.92262 q 0.487117,0.23355 0.984364,0.45668 0.497289,0.2132 1.004722,0.38556 0.51752,0.17259 1.024967,0.27424 0.517534,0.10144 1.024967,0.10144 0.517591,0 0.882915,-0.11188 0.375608,-0.12161 0.598739,-0.32461 0.233556,-0.2132 0.334949,-0.49729 0.111876,-0.29425 0.111876,-0.63937 0,-0.41607 -0.182387,-0.73067 -0.172554,-0.3247 -0.497289,-0.59877 -0.314578,-0.28408 -0.771251,-0.54798 -0.446543,-0.26373 -1.004679,-0.55816 -0.466845,-0.24373 -1.045254,-0.5886 -0.578481,-0.34519 -1.096071,-0.85241 -0.507391,-0.51764 -0.852413,-1.23814 -0.345207,-0.73068 -0.345207,-1.74551 0,-0.9945 0.32468,-1.77595 0.334949,-0.79155 0.943776,-1.32944 0.60891,-0.54799 1.471481,-0.83216 0.872743,-0.28407 1.94847,-0.28407 0.537906,0 1.045297,0.0714 0.517562,0.0715 1.014837,0.20304 0.507391,0.13191 1.014781,0.32468 0.507461,0.19287 1.045296,0.4466 l -1.014851,2.44568 q -0.456673,-0.21321 -0.852442,-0.37564 -0.395754,-0.16234 -0.77125,-0.27424 -0.375623,-0.11188 -0.740848,-0.16234 -0.355096,-0.0605 -0.720519,-0.0605 -0.791551,0 -1.217793,0.42624 -0.416056,0.41608 -0.416056,1.11631 0,0.37564 0.121751,0.66973 0.131909,0.28408 0.405927,0.53789 0.284076,0.25357 0.720546,0.51757 0.446543,0.26373 1.075699,0.59875 0.761149,0.40591 1.400477,0.83215 0.639356,0.41609 1.095986,0.93364 0.466844,0.50737 0.720547,1.15691 0.253561,0.64946 0.253561,1.52223 z"></path><path inkscape:connector-curvature="0" id="path837" style="font-style:normal;font-variant:normal;font-weight:bold;font-stretch:normal;font-size:medium;line-height:1000%;font-family:'Droid Sans';-inkscape-font-specification:'Droid Sans Bold';letter-spacing:0px;word-spacing:0px;fill:#000000;fill-opacity:1;stroke:none;stroke-width:3.80188394px;stroke-linecap:butt;stroke-linejoin:miter;stroke-opacity:1" d="m 78.709547,233.84264 h -3.135819 v -12.21852 h -3.724414 v -2.61819 h 10.574504 v 2.61819 h -3.714271 z"></path><path inkscape:connector-curvature="0" id="path839" style="font-style:normal;font-variant:normal;font-weight:bold;font-stretch:normal;font-size:medium;line-height:1000%;font-family:'Droid Sans';-inkscape-font-specification:'Droid Sans Bold';letter-spacing:0px;word-spacing:0px;fill:#000000;fill-opacity:1;stroke:none;stroke-width:3.80188394px;stroke-linecap:butt;stroke-linejoin:miter;stroke-opacity:1" d="m 88.693508,225.59209 h 0.852441 q 1.309143,0 1.877423,-0.51755 0.568308,-0.52772 0.568308,-1.54257 0,-1.05536 -0.608883,-1.50187 -0.608911,-0.44659 -1.887594,-0.44659 h -0.801695 z m 0,2.55741 v 5.69314 h -3.145962 v -14.83671 h 4.059307 q 2.851629,0 4.211503,1.10614 1.359861,1.09598 1.359861,3.33878 0,0.76111 -0.203041,1.38013 -0.203055,0.61911 -0.548007,1.10615 -0.334936,0.47703 -0.781423,0.84232 -0.436371,0.35513 -0.923488,0.59877 1.126445,1.80637 2.019531,3.22712 0.385583,0.60886 0.740777,1.18737 0.365352,0.57841 0.649514,1.03509 0.284076,0.45669 0.466788,0.73068 l 0.172539,0.28408 h -3.491013 l -3.216981,-5.69315 z"></path><path inkscape:connector-curvature="0" id="path841" style="font-style:normal;font-variant:normal;font-weight:bold;font-stretch:normal;font-size:medium;line-height:1000%;font-family:'Droid Sans';-inkscape-font-specification:'Droid Sans Bold';letter-spacing:0px;word-spacing:0px;fill:#000000;fill-opacity:1;stroke:none;stroke-width:3.80188394px;stroke-linecap:butt;stroke-linejoin:miter;stroke-opacity:1" d="m 103.11267,225.11514 2.67916,-6.10921 h 3.38952 l -4.50584,9.06235 v 5.77436 h -3.12566 v -5.67288 l -4.505822,-9.16383 h 3.409792 z"></path><path inkscape:connector-curvature="0" id="path843" style="font-style:normal;font-variant:normal;font-weight:bold;font-stretch:normal;font-size:medium;line-height:1000%;font-family:'Droid Sans';-inkscape-font-specification:'Droid Sans Bold';letter-spacing:0px;word-spacing:0px;fill:#000000;fill-opacity:1;stroke:none;stroke-width:3.80188394px;stroke-linecap:butt;stroke-linejoin:miter;stroke-opacity:1" d="m 129.09225,226.40398 q 0,1.715 -0.40597,3.12565 -0.3958,1.41058 -1.2178,2.41525 -0.82199,1.00475 -2.08036,1.55274 -1.24824,0.54798 -2.95317,0.54798 -1.70488,0 -2.96327,-0.54798 -1.24824,-0.54799 -2.07024,-1.55274 -0.81189,-1.00467 -1.21784,-2.41525 -0.39575,-1.42082 -0.39575,-3.1459 0,-1.72526 0.39575,-3.12575 0.40595,-1.41056 1.22794,-2.40506 0.82207,-0.99458 2.07029,-1.5324 1.25839,-0.54798 2.97343,-0.54798 1.70492,0 2.95316,0.54798 1.2482,0.53782 2.06006,1.54257 0.822,0.99441 1.2178,2.40506 0.40597,1.40049 0.40597,3.13583 z m -10.06709,0 q 0,1.16701 0.20306,2.10073 0.20304,0.92344 0.61904,1.57291 0.42624,0.63937 1.06557,0.98441 0.63934,0.34519 1.52222,0.34519 0.90323,0 1.54255,-0.34519 0.64952,-0.34487 1.05542,-0.98441 0.4161,-0.64947 0.60889,-1.57291 0.20304,-0.93372 0.20304,-2.10073 0,-1.1671 -0.20304,-2.09055 -0.19289,-0.93363 -0.60889,-1.58309 -0.4059,-0.64954 -1.04529,-0.99457 -0.63932,-0.34521 -1.53236,-0.34521 -0.88289,0 -1.53242,0.34521 -0.64945,0.3452 -1.07569,0.99457 -0.41606,0.64946 -0.61904,1.58309 -0.20306,0.92345 -0.20306,2.09055 z"></path><path inkscape:connector-curvature="0" id="path845" style="font-style:normal;font-variant:normal;font-weight:bold;font-stretch:normal;font-size:medium;line-height:1000%;font-family:'Droid Sans';-inkscape-font-specification:'Droid Sans Bold';letter-spacing:0px;word-spacing:0px;fill:#000000;fill-opacity:1;stroke:none;stroke-width:3.80188394px;stroke-linecap:butt;stroke-linejoin:miter;stroke-opacity:1" d="m 135.2522,233.84264 h -3.09518 v -14.83671 h 8.50423 v 2.57758 h -5.40905 v 3.82598 h 5.03353 v 2.5675 h -5.03353 z"></path><path inkscape:connector-curvature="0" id="path847" style="font-style:normal;font-variant:normal;font-weight:bold;font-stretch:normal;font-size:medium;line-height:1000%;font-family:'Droid Sans';-inkscape-font-specification:'Droid Sans Bold';letter-spacing:0px;word-spacing:0px;fill:#000000;fill-opacity:1;stroke:none;stroke-width:3.80188394px;stroke-linecap:butt;stroke-linejoin:miter;stroke-opacity:1" d="m 160.44016,226.28216 q 0,1.87743 -0.51752,3.29818 -0.50744,1.41064 -1.48164,2.36454 -0.96409,0.9438 -2.3747,1.42082 -1.40048,0.47694 -3.19672,0.47694 h -3.90709 v -14.83671 h 4.3435 q 1.63384,0 2.94295,0.46685 1.31929,0.46677 2.25292,1.39031 0.93366,0.91328 1.43091,2.27315 0.50739,1.35979 0.50739,3.14592 z m -3.18654,0.0807 q 0,-1.23805 -0.25357,-2.13108 -0.24372,-0.90319 -0.72054,-1.49187 -0.46681,-0.5886 -1.15692,-0.87267 -0.67993,-0.28408 -1.56281,-0.28408 h -1.45121 v 9.66112 h 1.1569 q 1.98909,0 2.9836,-1.2178 1.00468,-1.21778 1.00468,-3.66345 z"></path><path inkscape:connector-curvature="0" id="path849" style="font-style:normal;font-variant:normal;font-weight:bold;font-stretch:normal;font-size:medium;line-height:1000%;font-family:'Droid Sans';-inkscape-font-specification:'Droid Sans Bold';letter-spacing:0px;word-spacing:0px;fill:#000000;fill-opacity:1;stroke:none;stroke-width:3.80188394px;stroke-linecap:butt;stroke-linejoin:miter;stroke-opacity:1" d="m 172.08024,233.84264 h -8.54482 v -14.83671 h 8.54482 v 2.57758 h -5.3989 v 3.25764 h 5.02339 v 2.57759 h -5.02339 v 3.82597 h 5.3989 z"></path><path inkscape:connector-curvature="0" id="path851" style="font-style:normal;font-variant:normal;font-weight:bold;font-stretch:normal;font-size:medium;line-height:1000%;font-family:'Droid Sans';-inkscape-font-specification:'Droid Sans Bold';letter-spacing:0px;word-spacing:0px;fill:#000000;fill-opacity:1;stroke:none;stroke-width:3.80188394px;stroke-linecap:butt;stroke-linejoin:miter;stroke-opacity:1" d="m 178.28082,233.84264 h -3.09524 v -14.83671 h 8.50426 v 2.57758 h -5.40902 v 3.82598 h 5.03353 v 2.5675 h -5.03353 z"></path><path inkscape:connector-curvature="0" id="path853" style="font-style:normal;font-variant:normal;font-weight:bold;font-stretch:normal;font-size:medium;line-height:1000%;font-family:'Droid Sans';-inkscape-font-specification:'Droid Sans Bold';letter-spacing:0px;word-spacing:0px;fill:#000000;fill-opacity:1;stroke:none;stroke-width:3.80188394px;stroke-linecap:butt;stroke-linejoin:miter;stroke-opacity:1" d="m 195.13709,233.84264 h -8.54484 v -14.83671 h 8.54484 v 2.57758 h -5.39888 v 3.25764 h 5.02338 v 2.57759 h -5.02338 v 3.82597 h 5.39888 z"></path><path inkscape:connector-curvature="0" id="path855" style="font-style:normal;font-variant:normal;font-weight:bold;font-stretch:normal;font-size:medium;line-height:1000%;font-family:'Droid Sans';-inkscape-font-specification:'Droid Sans Bold';letter-spacing:0px;word-spacing:0px;fill:#000000;fill-opacity:1;stroke:none;stroke-width:3.80188394px;stroke-linecap:butt;stroke-linejoin:miter;stroke-opacity:1" d="m 210.77555,233.84264 h -3.9883 l -5.83521,-11.22395 h -0.0911 q 0.0607,0.78137 0.1013,1.55266 0.0406,0.65963 0.0607,1.39031 0.0317,0.7205 0.0317,1.29901 v 6.98197 h -2.81101 v -14.83671 h 3.96793 l 5.82511,11.1123 h 0.0607 q -0.0317,-0.77128 -0.0712,-1.52222 -0.0127,-0.32469 -0.0317,-0.65964 -0.0127,-0.34519 -0.019,-0.67989 -0.0127,-0.34529 -0.019,-0.65973 0,-0.31459 0,-0.56823 v -7.02259 h 2.82121 z"></path><path inkscape:connector-curvature="0" id="path857" style="font-style:normal;font-variant:normal;font-weight:bold;font-stretch:normal;font-size:medium;line-height:1000%;font-family:'Droid Sans';-inkscape-font-specification:'Droid Sans Bold';letter-spacing:0px;word-spacing:0px;fill:#000000;fill-opacity:1;stroke:none;stroke-width:3.80188394px;stroke-linecap:butt;stroke-linejoin:miter;stroke-opacity:1" d="m 220.82229,221.41107 q -0.90314,0 -1.60339,0.35504 -0.69009,0.34521 -1.16707,1.00467 -0.46679,0.64955 -0.71038,1.59326 -0.24371,0.93372 -0.24371,2.10072 0,1.18736 0.21321,2.1109 0.22306,0.92346 0.66976,1.56283 0.45664,0.62911 1.15689,0.96406 0.71037,0.32469 1.68459,0.32469 0.90323,0 1.80641,-0.20304 0.91336,-0.20304 1.97893,-0.57851 v 2.63855 q -0.48711,0.20304 -0.96411,0.3452 -0.47697,0.14208 -0.97421,0.23354 -0.49724,0.0913 -1.025,0.13191 -0.51754,0.0505 -1.11632,0.0505 -1.71501,0 -2.97342,-0.54798 -1.25837,-0.54808 -2.08037,-1.54257 -0.82199,-0.99458 -1.21783,-2.39506 -0.39576,-1.4004 -0.39576,-3.11548 0,-1.68456 0.45667,-3.08505 0.45668,-1.41065 1.33956,-2.42541 0.88292,-1.01484 2.1819,-1.57299 1.29896,-0.56834 2.98355,-0.56834 1.10618,0 2.21235,0.28408 1.1163,0.27417 2.13111,0.76112 l -1.01481,2.55739 q -0.83217,-0.39581 -1.67447,-0.69014 -0.84231,-0.29426 -1.65418,-0.29426 z"></path><path inkscape:connector-curvature="0" id="path859" style="font-style:normal;font-variant:normal;font-weight:bold;font-stretch:normal;font-size:medium;line-height:1000%;font-family:'Droid Sans';-inkscape-font-specification:'Droid Sans Bold';letter-spacing:0px;word-spacing:0px;fill:#000000;fill-opacity:1;stroke:none;stroke-width:3.80188394px;stroke-linecap:butt;stroke-linejoin:miter;stroke-opacity:1" d="m 236.2984,233.84264 h -8.54483 v -14.83671 h 8.54483 v 2.57758 h -5.39885 v 3.25764 h 5.02337 v 2.57759 h -5.02337 v 3.82597 h 5.39885 z"></path><g id="g972" transform="matrix(3.4249285,0,0,-3.4249285,13.395198,212.77354)"><path d="M 0.06879818,0 H -1.370202 v 7.008 h -1.081 v 1.2 h 2.52000018 z" style="fill:#1d1d1b;fill-opacity:1;fill-rule:nonzero;stroke:none" id="path974" inkscape:connector-curvature="0"></path></g><g id="g976" transform="matrix(3.4249285,0,0,-3.4249285,25.931121,206.2381)"><path d="M 0.06879818,0 H -1.370202 v 5.1 h -1.081 v 1.2 h 2.52000018 z" style="fill:#1d1d1b;fill-opacity:1;fill-rule:nonzero;stroke:none" id="path978" inkscape:connector-curvature="0"></path></g><g id="g980" transform="matrix(3.4249285,0,0,-3.4249285,-1028.1944,2120.3957)"><g id="g982" clip-path="url(#clipPath986)"><g id="g988" transform="translate(314.8848,558.8898)"><path d="M 0.06879818,0 H -1.371202 v 4.092 c 0,0.392 -0.071,0.658 -0.21,0.798 -0.14,0.14 -0.411,0.21 -0.81,0.21 h -1.644 V 0 h -1.44 v 6.3 h 3.18 c 0.752,0 1.32400018,-0.16 1.71600018,-0.48 0.432,-0.352 0.648,-0.896 0.648,-1.632 z" style="fill:#1d1d1b;fill-opacity:1;fill-rule:nonzero;stroke:none" id="path990" inkscape:connector-curvature="0"></path></g><g id="g992" transform="translate(322.2871,562.7657)"><path d="m 0,0 c 0,-1.104 -0.312,-2.016 -0.936,-2.736 -0.664,-0.76 -1.54,-1.14 -2.627,-1.14 h -1.981 l -0.54,6.3 h 1.445 l 0.413,-5.099 0.56,-0.001 c 0.73,0 1.294,0.264 1.69,0.792 0.358,0.48 0.537,1.1 0.537,1.86 0,0.376 -0.072,0.688 -0.215,0.936 C -1.837,1.224 -2.104,1.38 -2.453,1.38 -2.58,1.38 -2.737,1.364 -2.924,1.332 -3.11,1.3 -3.22,1.244 -3.252,1.164 v 1.164 c 0.097,0.096 0.282,0.156 0.559,0.18 0.275,0.024 0.462,0.036 0.557,0.036 0.712,0 1.256,-0.252 1.632,-0.756 C -0.168,1.34 0,0.744 0,0" style="fill:#1d1d1b;fill-opacity:1;fill-rule:nonzero;stroke:none" id="path994" inkscape:connector-curvature="0"></path></g><g id="g996" transform="translate(325.6846,561.7819)"><path d="m 0,0 h -1.44 v 2.208 h -1.081 v 1.2 H 0 Z" style="fill:#1d1d1b;fill-opacity:1;fill-rule:nonzero;stroke:none" id="path998" inkscape:connector-curvature="0"></path></g><g id="g1000" transform="translate(332.1875,558.8898)"><path d="m 0,0 h -5.279 v 1.2 h 2.951 v 3.9 h -2.951 v 1.2 h 4.391 V 1.2 H 0 Z" style="fill:#1d1d1b;fill-opacity:1;fill-rule:nonzero;stroke:none" id="path1002" inkscape:connector-curvature="0"></path></g><path d="m 334.768,558.89 h -1.439 v 3.684 h 1.439 z m 4.068,0 h -1.44 v 5.1 h -4.068 v 1.2 h 5.508 z" style="fill:#1d1d1b;fill-opacity:1;fill-rule:nonzero;stroke:none" id="path1004" inkscape:connector-curvature="0"></path><g id="g1006" transform="translate(348.0391,563.9899)"><path d="m 0,0 h -0.876 v -5.1 h -1.44 V 0 H -5.208 V 1.2 H 0 Z" style="fill:#1d1d1b;fill-opacity:1;fill-rule:nonzero;stroke:none" id="path1008" inkscape:connector-curvature="0"></path></g><g id="g1010" transform="translate(353.3789,558.8898)"><path sodipodi:nodetypes="ccsssccsssc" d="M 0.34409348,0 H -1.0949065 v 4.092 c 0,0.384 -0.073,0.648 -0.217,0.792 -0.144,0.144 -0.412,0.216 -0.804,0.216 h -2.124 v 1.2 h 2.208 c 0.768,0 1.35599998,-0.166 1.76399998,-0.498 0.408,-0.332 0.612,-0.874 0.612,-1.626 z" style="fill:#1d1d1b;fill-opacity:1;fill-rule:nonzero;stroke:none" id="path1012" inkscape:connector-curvature="0"></path></g><g id="g1014" transform="translate(362.1387,565.1901)"><path d="M 0,0 -0.299,-2.316 C -0.45,-3.468 -0.782,-4.384 -1.295,-5.064 -1.919,-5.888 -2.771,-6.3 -3.851,-6.3 h -2.82 L -7.439,0 h 1.402 l 0.312,-2.856 h 0.396 c 0.248,0 0.433,0.104 0.552,0.312 0.088,0.152 0.152,0.372 0.192,0.66 L -4.367,0 h 1.38 L -3.275,-2.136 C -3.347,-2.632 -3.567,-3.024 -3.936,-3.313 -4.304,-3.6 -4.748,-3.744 -5.269,-3.744 l -0.335,-10e-4 0.153,-1.356 1.321,0.001 c 0.769,0 1.365,0.28 1.79,0.84 0.345,0.456 0.572,1.099 0.685,1.932 L -1.355,0 Z" style="fill:#1d1d1b;fill-opacity:1;fill-rule:nonzero;stroke:none" id="path1016" inkscape:connector-curvature="0"></path></g><g id="g1018" transform="translate(369.2783,558.8898)"><path d="m 0,0 h -2.916 v 1.2 h 1.477 v 2.892 c 0,0.392 -0.071,0.658 -0.21,0.798 -0.14,0.14 -0.411,0.21 -0.81,0.21 H -3.573 L -4.545,0 H -6 l 0.984,5.1 h -1.103 v 1.2 h 3.767 C -1.6,6.3 -1.02,6.13 -0.611,5.79 -0.203,5.45 0,4.912 0,4.176 Z" style="fill:#1d1d1b;fill-opacity:1;fill-rule:nonzero;stroke:none" id="path1020" inkscape:connector-curvature="0"></path></g></g></g></svg>